<?xml version="1.0" standalone="no"?><!DOCTYPE svg PUBLIC "-//W3C//DTD SVG 1.1//EN" "http://www.w3.org/Graphics/SVG/1.1/DTD/svg11.dtd"><svg t="1683546525096" class="icon" viewBox="0 0 1024 1024" version="1.1" xmlns="http://www.w3.org/2000/svg" p-id="2246" width="128" height="128" xmlns:xlink="http://www.w3.org/1999/xlink"><path d="M480 283.584a117.376 117.376 0 1 1 64 0v209.92l183.744 106.112a117.312 117.312 0 1 1-31.296 55.872L512 548.928l-184.512 106.56a117.312 117.312 0 1 1-31.296-55.872L480 493.504v-209.92z m-21.312-112.896a53.312 53.312 0 1 1 53.632 53.312h-0.64a53.312 53.312 0 0 1-52.992-53.312z m-298.688 512a53.312 53.312 0 1 1 106.688 0 53.312 53.312 0 0 1-106.688 0z m597.312 0a53.312 53.312 0 1 1 106.688 0 53.312 53.312 0 0 1-106.688 0z" fill="#2cc085" p-id="2247"></path><path d="M96 341.312a117.312 117.312 0 1 1 234.688 0 117.312 117.312 0 0 1-234.688 0zM213.312 288a53.312 53.312 0 1 0 0 106.688 53.312 53.312 0 0 0 0-106.688zM394.688 853.376a117.312 117.312 0 1 1 234.624 0 117.312 117.312 0 0 1-234.624 0zM512 800a53.312 53.312 0 1 0 0 106.688 53.312 53.312 0 0 0 0-106.688zM693.312 341.312a117.312 117.312 0 1 1 234.688 0 117.312 117.312 0 0 1-234.688 0z m117.376-53.312a53.312 53.312 0 1 0 0 106.688 53.312 53.312 0 0 0 0-106.688z" fill="#2cc085" p-id="2248"></path></svg>